# Blender 4.5.6 LTS
# www.blender.org
mtllib back_visual.mtl
o back_visual.001
v -0.216632 0.021516 -0.200465
v -0.174073 0.012056 -0.199803
v -0.216632 0.016917 -0.200143
v -0.174036 0.007742 -0.199502
v -0.131103 0.004668 -0.199287
v -0.131054 0.000579 -0.199001
v -0.087825 -0.000630 -0.198916
v -0.087782 -0.004559 -0.198641
v -0.044340 -0.003826 -0.198693
v -0.044315 -0.007659 -0.198425
v -0.000751 -0.004913 -0.198617
v -0.000751 -0.008714 -0.198351
v 0.042816 -0.007722 -0.198420
v 0.086287 -0.004685 -0.198632
v 0.129566 0.000390 -0.198987
v 0.172595 0.011813 -0.199786
v 0.215168 0.021213 -0.200443
v -0.216632 -0.007751 0.200039
v -0.216632 -0.003601 0.200446
v 0.216632 -0.003408 0.200465
v 0.144657 -0.011335 0.199688
v 0.216632 -0.007508 0.200063
v 0.144647 -0.015258 0.199304
v 0.072402 -0.016110 0.199221
v 0.072395 -0.019930 0.198846
v 0.000006 -0.017724 0.199063
v 0.000008 -0.021516 0.198691
v -0.072391 -0.016174 0.199214
v -0.072381 -0.020011 0.198838
v -0.144650 -0.011464 0.199676
v -0.144639 -0.015420 0.199288
v 0.172559 0.007491 -0.199484
v 0.215168 0.016604 -0.200121
v 0.163211 0.006749 -0.133072
v 0.129615 0.004485 -0.199274
v 0.158502 0.004354 -0.099745
v 0.136963 0.001183 -0.099605
v 0.177818 0.002364 0.000080
v 0.101057 -0.006909 0.000179
v 0.018744 -0.006865 -0.132346
v 0.042840 -0.003887 -0.198688
v -0.010309 -0.006995 -0.132340
v 0.006700 -0.008093 -0.099198
v 0.028480 -0.007712 -0.099214
v 0.009542 -0.015554 0.132785
v 0.050544 -0.013572 0.099677
v 0.014314 -0.014442 0.099646
v 0.080777 -0.003280 -0.143575
v 0.086330 -0.000752 -0.198907
v 0.078000 -0.004507 -0.115916
v 0.082847 -0.004719 -0.099345
v 0.061508 -0.005861 -0.110332
v -0.076514 -0.002460 -0.176729
v -0.070854 -0.003303 -0.165644
v 0.109931 -0.007423 0.033380
v 0.036649 -0.009640 -0.032930
v -0.019718 -0.011155 0.000220
v 0.114366 -0.007685 0.049988
v -0.053811 -0.006320 -0.110313
v 0.040730 -0.010599 0.000217
v -0.108536 -0.000995 -0.132663
v -0.075522 -0.005314 -0.099323
v 0.124461 -0.008811 0.099841
v 0.044003 -0.011586 0.033367
v -0.097223 -0.003464 -0.099406
v -0.137348 0.002669 -0.132860
v -0.118876 -0.001150 -0.099509
v -0.118412 -0.009421 0.099811
v -0.151450 -0.001463 0.000107
v -0.127157 -0.010055 0.133070
v -0.177194 0.010932 -0.166528
v -0.082332 -0.007209 -0.032991
v -0.168646 0.006525 -0.110926
v -0.184241 0.008715 -0.099948
v -0.085734 -0.008177 0.000184
v -0.041325 -0.012803 0.066512
v -0.096634 -0.008592 0.033367
v -0.031566 -0.014529 0.110702
v -0.052116 -0.013543 0.099674
v -0.054492 -0.014018 0.116255
v -0.060461 -0.014733 0.143899
vn -0.0000 -0.0698 -0.9976
vn -1.0000 -0.0000 -0.0000
vn -0.0000 -0.0975 0.9952
vn -0.2093 -0.9760 -0.0602
vn -0.1174 -0.9921 -0.0439
vn -0.1637 -0.9855 -0.0452
vn -0.1063 -0.9931 -0.0498
vn -0.0709 -0.9968 -0.0360
vn -0.0636 -0.9973 -0.0363
vn 0.0227 -0.9992 -0.0323
vn -0.0241 -0.9992 -0.0322
vn -0.0208 -0.9993 -0.0325
vn 0.0695 -0.9969 -0.0358
vn 0.0220 -0.9992 -0.0323
vn 0.1623 -0.9857 -0.0449
vn 0.1160 -0.9923 -0.0434
vn 0.0647 -0.9973 -0.0360
vn 0.2079 -0.9763 -0.0596
vn 0.1074 -0.9930 -0.0491
vn 1.0000 -0.0003 -0.0037
vn 1.0000 0.0004 -0.0036
vn -0.2148 0.9757 0.0438
vn -0.1672 0.9846 0.0512
vn -0.2210 0.9745 0.0388
vn -0.1452 0.9881 0.0505
vn -0.1688 0.9838 0.0610
vn -0.1198 0.9921 0.0373
vn -0.1911 0.9799 0.0565
vn -0.1452 0.9882 0.0478
vn -0.0234 0.9991 0.0363
vn 0.0248 0.9991 0.0350
vn -0.0045 0.9995 0.0308
vn -0.0174 0.9994 0.0307
vn -0.0045 0.9994 0.0354
vn -0.0223 0.9993 0.0295
vn -0.0236 0.9993 0.0306
vn -0.0240 0.9993 0.0301
vn -0.1198 0.9922 0.0333
vn -0.0717 0.9967 0.0383
vn -0.1244 0.9918 0.0292
vn -0.0531 0.9983 0.0255
vn -0.1285 0.9897 0.0638
vn -0.1052 0.9939 0.0335
vn -0.1081 0.9933 0.0416
vn -0.1081 0.9932 0.0443
vn -0.0431 0.9983 0.0382
vn -0.0488 0.9976 0.0492
vn -0.0692 0.9969 0.0373
vn -0.0705 0.9970 0.0334
vn -0.0550 0.9985 0.0030
vn 0.0730 0.9963 0.0449
vn 0.1213 0.9924 0.0200
vn 0.0698 0.9968 0.0402
vn 0.0483 0.9986 0.0229
vn -0.1197 0.9917 0.0473
vn -0.0174 0.9994 0.0312
vn -0.0104 0.9996 0.0280
vn -0.0592 0.9977 0.0328
vn -0.0549 0.9979 0.0358
vn -0.1196 0.9917 0.0476
vn 0.0256 0.9995 0.0200
vn 0.0372 0.9984 0.0430
vn -0.0092 0.9995 0.0300
vn -0.0610 0.9975 0.0364
vn 0.0855 0.9959 0.0280
vn 0.1102 0.9928 0.0471
vn 0.0880 0.9956 0.0308
vn 0.0742 0.9957 0.0555
vn -0.0661 0.9971 0.0386
vn -0.1098 0.9928 0.0473
vn -0.1133 0.9923 0.0505
vn -0.0643 0.9971 0.0395
vn -0.1203 0.9916 0.0467
vn -0.0643 0.9973 0.0355
vn -0.0610 0.9975 0.0357
vn -0.0092 0.9995 0.0307
vn -0.0240 0.9992 0.0323
vn -0.0630 0.9975 0.0323
vn -0.0638 0.9973 0.0362
vn -0.0630 0.9975 0.0326
vn 0.0847 0.9954 0.0451
vn 0.1258 0.9912 0.0417
vn 0.1060 0.9936 0.0377
vn 0.1257 0.9911 0.0438
vn 0.1046 0.9935 0.0446
vn 0.1090 0.9928 0.0496
vn 0.0652 0.9971 0.0382
vn 0.1071 0.9931 0.0471
vn 0.1687 0.9845 0.0491
vn 0.2159 0.9750 0.0532
vn 0.1660 0.9851 0.0453
vn 0.0847 0.9957 0.0371
vn 0.0640 0.9973 0.0351
vn 0.1061 0.9938 0.0323
vn 0.0998 0.9944 0.0358
vn 0.0409 0.9983 0.0416
vn 0.0254 0.9995 0.0209
vn 0.1449 0.9889 0.0329
vn 0.1591 0.9858 0.0537
vn 0.1965 0.9786 0.0613
vn 0.1487 0.9875 0.0517
vn 0.1379 0.9889 0.0554
vn 0.2143 0.9752 0.0551
vn 0.1491 0.9887 0.0146
vn 0.1741 0.9834 0.0512
vn 0.1015 0.9941 0.0394
vn 0.0450 0.9984 0.0338
vn 0.0450 0.9982 0.0395
vn -0.0053 0.9997 0.0231
vn 0.0030 0.9990 0.0444
vn 0.1015 0.9938 0.0457
vn 0.1015 0.9938 0.0458
vn 0.0572 0.9979 0.0313
vn 0.0071 0.9993 0.0375
vn 0.0064 0.9994 0.0345
vn 0.0621 0.9975 0.0328
vn 0.0524 0.9979 0.0393
vn 0.0306 0.9990 0.0323
vn 0.0303 0.9990 0.0329
vn 0.0621 0.9974 0.0374
vn 0.0215 0.9993 0.0307
vn 0.0617 0.9973 0.0391
vn 0.0635 0.9972 0.0397
vn 0.0641 0.9973 0.0359
vn 0.0173 0.9992 0.0352
vn 0.0147 0.9997 0.0190
vn 0.0301 0.9990 0.0323
s 0
usemtl b_Backrest_001_.001
f 1//1 2//1 3//1
f 2//1 4//1 3//1
f 2//1 5//1 4//1
f 5//1 6//1 4//1
f 5//1 7//1 6//1
f 7//1 8//1 6//1
f 7//1 9//1 8//1
f 9//1 10//1 8//1
f 9//1 11//1 10//1
f 11//1 12//1 10//1
f 41//1 13//1 11//1
f 11//1 13//1 12//1
f 49//1 14//1 41//1
f 41//1 14//1 13//1
f 35//1 15//1 49//1
f 49//1 15//1 14//1
f 16//1 32//1 35//1
f 35//1 32//1 15//1
f 17//1 33//1 16//1
f 16//1 33//1 32//1
f 18//2 1//2 3//2
f 18//2 19//2 1//2
f 20//3 21//3 22//3
f 21//3 23//3 22//3
f 21//3 24//3 23//3
f 24//3 25//3 23//3
f 24//3 26//3 25//3
f 26//3 27//3 25//3
f 28//3 29//3 26//3
f 26//3 29//3 27//3
f 30//3 31//3 28//3
f 28//3 31//3 29//3
f 19//3 18//3 30//3
f 30//3 18//3 31//3
f 18//4 3//4 4//4
f 31//5 6//5 8//5
f 31//6 4//6 6//6
f 31//7 18//7 4//7
f 29//8 8//8 10//8
f 29//9 31//9 8//9
f 27//10 12//10 13//10
f 27//11 10//11 12//11
f 27//12 29//12 10//12
f 25//13 13//13 14//13
f 25//14 27//14 13//14
f 23//15 15//15 32//15
f 23//16 14//16 15//16
f 23//17 25//17 14//17
f 22//18 32//18 33//18
f 22//19 23//19 32//19
f 20//20 33//20 17//20
f 20//21 22//21 33//21
f 34//22 17//22 16//22
f 34//23 16//23 35//23
f 36//24 17//24 34//24
f 37//25 36//25 34//25
f 38//26 20//26 17//26
f 38//27 37//27 39//27
f 38//28 17//28 36//28
f 38//29 36//29 37//29
f 40//30 41//30 11//30
f 42//31 11//31 9//31
f 42//32 40//32 11//32
f 43//33 44//33 40//33
f 43//34 40//34 42//34
f 45//35 26//35 24//35
f 45//36 24//36 46//36
f 45//37 46//37 47//37
f 48//38 35//38 49//38
f 48//39 49//39 41//39
f 48//40 34//40 35//40
f 48//41 41//41 40//41
f 48//42 37//42 34//42
f 50//43 37//43 48//43
f 51//44 39//44 37//44
f 51//45 37//45 50//45
f 52//46 40//46 44//46
f 52//47 48//47 40//47
f 52//48 50//48 48//48
f 52//49 51//49 50//49
f 52//50 44//50 51//50
f 53//51 9//51 7//51
f 53//52 7//52 5//52
f 54//53 9//53 53//53
f 54//54 42//54 9//54
f 55//55 38//55 39//55
f 56//56 44//56 43//56
f 56//57 43//57 57//57
f 56//58 39//58 51//58
f 56//59 51//59 44//59
f 58//60 38//60 55//60
f 59//61 43//61 42//61
f 59//62 42//62 54//62
f 60//63 56//63 57//63
f 60//64 39//64 56//64
f 61//65 59//65 54//65
f 61//66 53//66 5//66
f 61//67 54//67 53//67
f 62//68 59//68 61//68
f 63//69 24//69 21//69
f 63//70 21//70 20//70
f 63//71 20//71 38//71
f 63//72 46//72 24//72
f 63//73 38//73 58//73
f 63//74 58//74 46//74
f 64//75 39//75 60//75
f 64//76 60//76 57//76
f 64//77 47//77 46//77
f 64//78 55//78 39//78
f 64//79 46//79 58//79
f 64//80 58//80 55//80
f 65//81 62//81 61//81
f 66//82 61//82 5//82
f 67//83 65//83 61//83
f 67//84 61//84 66//84
f 68//85 69//85 19//85
f 70//86 19//86 30//86
f 70//87 30//87 28//87
f 70//88 68//88 19//88
f 71//89 5//89 2//89
f 71//90 2//90 1//90
f 71//91 66//91 5//91
f 72//92 62//92 65//92
f 72//93 59//93 62//93
f 72//94 65//94 67//94
f 72//95 67//95 69//95
f 72//96 57//96 43//96
f 72//97 43//97 59//97
f 73//98 67//98 66//98
f 73//99 66//99 71//99
f 74//100 1//100 19//100
f 74//101 69//101 67//101
f 74//102 19//102 69//102
f 74//103 71//103 1//103
f 74//104 67//104 73//104
f 74//105 73//105 71//105
f 75//106 72//106 69//106
f 75//107 57//107 72//107
f 76//108 57//108 75//108
f 76//109 64//109 57//109
f 76//110 47//110 64//110
f 77//111 69//111 68//111
f 77//112 75//112 69//112
f 77//113 76//113 75//113
f 78//114 47//114 76//114
f 78//115 45//115 47//115
f 79//116 77//116 68//116
f 79//117 76//117 77//117
f 79//118 78//118 76//118
f 80//119 78//119 79//119
f 80//120 79//120 68//120
f 81//121 28//121 26//121
f 81//122 80//122 68//122
f 81//123 70//123 28//123
f 81//124 68//124 70//124
f 81//125 26//125 45//125
f 81//126 45//126 78//126
f 81//127 78//127 80//127
