# Blender 4.5.6 LTS
# www.blender.org
mtllib seat_visual.mtl
o seat_visual.001
v -0.215900 0.190503 0.014361
v -0.215906 -0.190497 0.014361
v -0.173290 -0.190497 0.005276
v -0.173284 0.190503 0.005276
v -0.130290 0.190502 -0.001804
v -0.130296 -0.190498 -0.001804
v -0.087011 0.190501 -0.006862
v -0.087017 -0.190499 -0.006862
v -0.043549 -0.190499 -0.009888
v -0.043543 0.190501 -0.009888
v 0.000019 0.190500 -0.010876
v 0.000013 -0.190500 -0.010876
v 0.043580 0.190499 -0.009823
v 0.043574 -0.190501 -0.009823
v 0.087038 -0.190501 -0.006731
v 0.087043 0.190499 -0.006731
v 0.130314 0.190498 -0.001607
v 0.130309 -0.190502 -0.001608
v 0.173298 0.190497 0.005537
v 0.173292 -0.190503 0.005537
v 0.215900 0.190497 0.014686
v 0.215894 -0.190503 0.014686
v 0.216787 0.190497 0.010981
v 0.216781 -0.190503 0.010981
v -0.216781 0.190503 0.010655
v -0.173991 0.190503 0.001532
v -0.173997 -0.190497 0.001532
v -0.130821 0.190502 -0.005576
v -0.130826 -0.190498 -0.005576
v -0.087370 -0.190499 -0.010656
v -0.087365 0.190501 -0.010655
v -0.043718 0.190501 -0.013694
v -0.043724 -0.190499 -0.013694
v 0.000016 -0.190500 -0.014686
v 0.000022 0.190500 -0.014686
v 0.043761 0.190499 -0.013629
v 0.043755 -0.190501 -0.013629
v 0.087403 0.190499 -0.010524
v 0.087397 -0.190501 -0.010524
v 0.130851 0.190498 -0.005379
v 0.130845 -0.190502 -0.005379
v 0.174005 -0.190503 0.001794
v 0.174011 0.190497 0.001794
v -0.216787 -0.190497 0.010655
vn 0.2085 -0.0000 0.9780
vn 0.1625 -0.0000 0.9867
vn 0.1161 -0.0000 0.9932
vn 0.0695 -0.0000 0.9976
vn 0.0227 -0.0000 0.9997
vn -0.0242 -0.0000 0.9997
vn -0.0710 -0.0000 0.9975
vn -0.1176 -0.0000 0.9931
vn -0.1640 -0.0000 0.9865
vn -0.2100 -0.0000 0.9777
vn 0.9725 -0.0000 0.2328
vn -0.2085 -0.0000 -0.9780
vn -0.1625 -0.0000 -0.9867
vn -0.1161 -0.0000 -0.9932
vn -0.0695 -0.0000 -0.9976
vn -0.0227 -0.0000 -0.9997
vn 0.0242 -0.0000 -0.9997
vn 0.0710 -0.0000 -0.9975
vn 0.1176 -0.0000 -0.9931
vn 0.1640 -0.0000 -0.9865
vn 0.2100 -0.0000 -0.9777
vn -0.9729 -0.0000 0.2313
vn -0.0000 1.0000 -0.0000
vn -0.0000 -1.0000 -0.0000
s 0
usemtl b_Seat_001_.001
f 1//1 2//1 3//1
f 4//1 1//1 3//1
f 5//2 3//2 6//2
f 5//2 4//2 3//2
f 7//3 6//3 8//3
f 7//4 8//4 9//4
f 7//3 5//3 6//3
f 10//4 7//4 9//4
f 11//5 9//5 12//5
f 11//5 10//5 9//5
f 13//6 12//6 14//6
f 13//7 14//7 15//7
f 13//6 11//6 12//6
f 16//7 13//7 15//7
f 17//8 15//8 18//8
f 17//8 16//8 15//8
f 19//9 18//9 20//9
f 19//9 17//9 18//9
f 21//10 20//10 22//10
f 21//10 19//10 20//10
f 23//11 21//11 22//11
f 23//11 22//11 24//11
f 25//12 26//12 44//12
f 44//12 26//12 27//12
f 27//13 28//13 29//13
f 29//14 28//14 30//14
f 26//13 28//13 27//13
f 28//14 31//14 30//14
f 30//15 32//15 33//15
f 33//16 32//16 34//16
f 31//15 32//15 30//15
f 32//16 35//16 34//16
f 34//17 36//17 37//17
f 35//17 36//17 34//17
f 37//18 38//18 39//18
f 36//18 38//18 37//18
f 39//19 40//19 41//19
f 41//20 40//20 42//20
f 38//19 40//19 39//19
f 40//20 43//20 42//20
f 42//21 23//21 24//21
f 43//21 23//21 42//21
f 1//22 25//22 2//22
f 2//22 25//22 44//22
f 1//23 4//23 25//23
f 25//23 4//23 26//23
f 26//23 5//23 28//23
f 4//23 5//23 26//23
f 28//23 7//23 31//23
f 5//23 7//23 28//23
f 31//23 10//23 32//23
f 7//23 10//23 31//23
f 32//23 11//23 35//23
f 10//23 11//23 32//23
f 35//23 13//23 36//23
f 11//23 13//23 35//23
f 36//23 16//23 38//23
f 13//23 16//23 36//23
f 38//23 17//23 40//23
f 16//23 17//23 38//23
f 40//23 19//23 43//23
f 17//23 19//23 40//23
f 43//23 21//23 23//23
f 19//23 21//23 43//23
f 3//24 2//24 44//24
f 3//24 44//24 27//24
f 6//24 27//24 29//24
f 6//24 3//24 27//24
f 8//24 29//24 30//24
f 8//24 6//24 29//24
f 9//24 30//24 33//24
f 9//24 8//24 30//24
f 12//24 33//24 34//24
f 12//24 9//24 33//24
f 14//24 34//24 37//24
f 14//24 12//24 34//24
f 15//24 37//24 39//24
f 15//24 14//24 37//24
f 18//24 39//24 41//24
f 18//24 15//24 39//24
f 42//24 18//24 41//24
f 20//24 18//24 42//24
f 22//24 42//24 24//24
f 22//24 20//24 42//24
